# AST/ASF file generated using VICON BodyLanguage
# -----------------------------------------------
:version 1.10
:name VICON
:units
  mass 1.0
  length 0.45
  angle deg
:documentation
   .ast/.asf automatically generated from VICON data using
   VICON BodyBuilder and BodyLanguage model FoxedUp or BRILLIANT.MOD
:root
   order TX TY TZ RX RY RZ
   axis XYZ
   position 0 0 0  
   orientation 0 0 0 
:bonedata
  begin
     id 1 
     name lhipjoint
     direction 0.653368 -0.678499 0.335782 
     length 2.51848 
     axis 0 0 0  XYZ
  end
  begin
     id 2 
     name lfemur
     direction 0.34202 -0.939693 0  
     length 6.57749  
     axis 0 0 20  XYZ
    dof rx ry rz
    limits (-160.0 20.0)
           (-70.0 70.0)
           (-60.0 70.0)
  end
  begin
     id 3 
     name ltibia
     direction 0.34202 -0.939693 0   
     length 7.94618   
     axis 0 0 20   XYZ
    dof rx
    limits (-10.0 170.0)
  end
  begin
     id 4 
     name lfoot
     direction 0.0811271 -0.222895 0.971461   
     length 2.31339   
     axis -90 7.62852e-016 20   XYZ
    dof rx rz
    limits (-45.0 90.0)
           (-70.0 20.0)
  end
  begin
     id 5 
     name ltoes
     direction 1.53568e-011 -4.21885e-011 1   
     length 1.15935   
     axis -90 7.62852e-016 20   XYZ
    dof rx
    limits (-90.0 20.0)
  end
  begin
     id 6 
     name rhipjoint
     direction -0.640058 -0.688614 0.340788   
     length 2.48149  
     axis 0 0 0  XYZ 
  end
  begin
     id 7 
     name rfemur
     direction -0.34202 -0.939693 0   
     length 6.57875   
     axis 0 0 -20   XYZ
    dof rx ry rz
    limits (-160.0 20.0)
           (-70.0 70.0)
           (-70.0 60.0)
  end
  begin
     id 8 
     name rtibia
     direction -0.34202 -0.939693 0   
     length 7.977   
     axis 0 0 -20   XYZ
    dof rx
    limits (-10.0 170.0)
 end
 begin
     id 9 
     name rfoot
     direction -0.0979793 -0.269196 0.958089   
     length 2.19857  
     axis -90 -7.62852e-016 -20   XYZ
    dof rx rz
    limits (-45.0 90.0)
           (-20.0 70.0)
  end
  begin
     id 10 
     name rtoes
     direction -1.53556e-011 -4.21868e-011 1   
     length 1.09838   
     axis -90 -7.62852e-016 -20   XYZ
    dof rx
    limits (-90.0 20.0)
  end
  begin
     id 11 
     name lowerback
     direction 0.0149039 0.998517 -0.0523597   
     length 2.10809   
     axis 0 0 0   XYZ
    dof rx ry rz
    limits (-20.0 45.0)
           (-30.0 30.0)
           (-30.0 30.0)
  end
  begin
     id 12 
     name upperback
     direction -0.00882659 0.999418 -0.0329624   
     length 2.1102   
     axis 0 0 0   XYZ
    dof rx ry rz
    limits (-20.0 45.0)
           (-30.0 30.0)
           (-30.0 30.0)
  end
  begin
     id 13 
     name thorax
     direction -0.0165585 0.999826 -0.0085833   
     length 2.11039   
     axis 0 0 0   XYZ
    dof rx ry rz
    limits (-20.0 45.0)
           (-30.0 30.0)
           (-30.0 30.0)
  end
  begin
     id 14 
     name lowerneck
     direction -0.0130877 0.999911 0.00260353   
     length 1.73253   
     axis 0 0 0   XYZ
    dof rx ry rz
    limits (-20.0 45.0)
           (-30.0 30.0)
           (-30.0 30.0)
  end
  begin
     id 15 
     name upperneck
     direction -0.0348454 0.928205 -0.370435   
     length 1.66692   
     axis 0 0 0   XYZ
    dof rx ry rz
    limits (-20.0 45.0)
           (-30.0 30.0)
           (-30.0 30.0)
  end
  begin
     id 16
     name head
     direction -0.00807754 0.992494 -0.122026  
     length 1.72765  
     axis 0 0 0   XYZ
    dof rx ry rz
    limits (-20.0 45.0)
           (-30.0 30.0)
           (-30.0 30.0)
  end
  begin
     id 17 
     name lclavicle
     direction 0.987582 0.144023 0.0627671  
     length 3.49235  
     axis 0 0 0   XYZ
    dof ry rz
    limits (-20.0 10.0)
           (0.0 20.0)
  end
  begin
     id 18 
     name lhumerus
     direction 1 -4.48958e-011 -1.45183e-018   
     length 5.41917   
     axis 180 -30 -90   XYZ
    dof rx ry rz
    limits (-60.0 90.0)
           (-90.0 90.0)
           (-90.0 90.0)
  end
  begin
     id 19
     name lradius
     direction 1 -4.48999e-011 5.75106e-027   
     length 2.44373   
     axis 180 -30 -90   XYZ
    dof rx
    limits (-10.0 170.0)
  end
  begin
     id 20
     name lwrist
     direction 1 -4.48987e-011 1.53461e-026   
     length 1.22186   
     axis -1.09697e-014 90 90   XYZ
    dof ry
    limits (-180.0 0.0)
 end
  begin
     id 21 
     name lhand
     direction 1 -4.48881e-011 3.06923e-026   
     length 0.727502   
     axis -1.95843e-014 90 90   XYZ
    dof rx rz
    limits (-90.0 90.0)
           (-45.0 45.0)
  end
  begin
     id 22 
     name lfingers
     direction 1 -4.48907e-011 6.13845e-026   
     length 0.586531   
     axis -3.91686e-014 90 90   XYZ
    dof rx
    limits (0.0 90.0)
  end
  begin
     id 23
     name lthumb
     direction 0.707107 -6.3487e-011 0.707107   
     length 0.842145   
     axis -90 45 2.85299e-015   XYZ
    dof rx rz
    limits (-45.0 45.0)
           (-45.0 45.0)
  end
  begin
     id 24 
     name rclavicle
     direction -0.980998 0.169556 0.0943023   
     length 3.29272  
     axis 0 0 0   XYZ 
    dof ry rz
    limits (-10.0 20.0)
           (-20.0 0.0)
  end
  begin
     id 25 
     name rhumerus
     direction -1 -1.83355e-005 2.45537e-005  
     length 5.58976   
     axis 180 30 90   XYZ
    dof rx ry rz
    limits (-90.0 60.0)
           (-90.0 90.0)
           (-90.0 90.0)
  end
  begin
     id 26 
     name rradius
     direction -1 -4.48967e-011 5.97228e-027   
     length 2.4806   
     axis 180 30 90   XYZ
    dof rx
    limits (-10.0 170.0)
  end
  begin
     id 27 
     name rwrist
     direction -1 -4.48963e-011 1.53461e-026   
     length 1.2403   
     axis -1.09697e-014 -90 -90   XYZ
    dof ry
    limits (-180.0 0.0)
  end
  begin
     id 28
     name rhand
     direction -1 -4.48881e-011 3.06923e-026   
     length 0.816009   
     axis -1.95843e-014 -90 -90   XYZ
    dof rx rz
    limits (-90.0 90.0)
           (-45.0 45.0)
  end
  begin
     id 29
     name rfingers
     direction -1 -4.49018e-011 6.13845e-026   
     length 0.657887   
     axis -3.91686e-014 -90 -90   XYZ
    dof rx
    limits (0.0 90.0)
  end
  begin
     id 30
     name rthumb
     direction -0.707107 -6.34872e-011 0.707107   
     length 0.944599   
     axis -90 -45 -2.85299e-015   XYZ
    dof rx rz
    limits (-45.0 45.0)
           (-45.0 45.0)
  end
:hierarchy
  begin
    root lhipjoint rhipjoint lowerback
    lhipjoint lfemur
    lfemur ltibia
    ltibia lfoot
    lfoot ltoes
    rhipjoint rfemur
    rfemur rtibia
    rtibia rfoot
    rfoot rtoes
    lowerback upperback
    upperback thorax
    thorax lowerneck lclavicle rclavicle
    lowerneck upperneck
    upperneck head
    lclavicle lhumerus
    lhumerus lradius
    lradius lwrist
    lwrist lhand lthumb
    lhand lfingers
    rclavicle rhumerus
    rhumerus rradius
    rradius rwrist
    rwrist rhand rthumb
    rhand rfingers
  end

#!OML:ASF F:\VICON\USERDATA\INSTALL\rory3\rory3.ASF
:FULLY-SPECIFIED
:DEGREES
143
root 4.78825 16.4194 27.836 26.1394 -54.3712 -10.4004
lowerback -8.02555 2.18384 -0.824822
upperback -5.23362 2.86742 0.578693
thorax -0.986401 1.42865 1.25689
lowerneck -1.63702 1.61223 0.329208
upperneck 29.589 1.43233 0.584165
head 9.58238 0.510208 0.224795
rclavicle 7.86193e-014 7.95139e-015
rhumerus -19.9239 10.3688 -89.3091
rradius 43.5849
rwrist -77.6832
rhand -28.4242 1.51581
rfingers 7.12502
rthumb -1.79564 -28.4564
lclavicle 7.86193e-014 7.95139e-015
lhumerus -22.6757 -42.24 98.2996
lradius 45.8076
lwrist 43.9816
lhand -11.0491 27.7908
lfingers 7.12502
lthumb 14.9732 57.2296
rfemur -60.9443 -44.0114 27.6358
rtibia 107.202
rfoot 33.6132 -51.0534
rtoes 56.1399
lfemur -42.2537 -2.29239 -24.219
ltibia 48.452
lfoot -38.1173 21.3395
ltoes 24.4038
144
root 4.80682 16.4201 27.8279 25.976 -54.4963 -10.2952
lowerback -7.67325 1.92969 -0.916618
upperback -5.07384 2.53831 0.62354
thorax -1.01139 1.26782 1.3224
lowerneck -1.73132 1.92357 0.544132
upperneck 29.3403 1.9613 0.177177
head 9.51616 0.740464 0.0900107
rclavicle -6.45553e-014 2.06736e-014
rhumerus -21.4909 17.5916 -90.0545
rradius 48.7381
rwrist -77.9598
rhand -25.2178 3.17507
rfingers 7.12502
rthumb 1.30121 -26.8007
lclavicle -6.45553e-014 2.06736e-014
lhumerus -23.7912 -46.0199 98.7614
lradius 50.3936
lwrist 46.513
lhand -8.08532 25.2001
lfingers 7.12502
lthumb 17.8267 54.4031
rfemur -62.9039 -43.73 27.8983
rtibia 108.281
rfoot 32.4733 -51.6872
rtoes 56.0339
lfemur -42.252 -1.89697 -24.4183
ltibia 48.4245
lfoot -37.8172 21.2662
ltoes 23.9771
145
root 4.82406 16.4282 27.8119 25.7523 -54.412 -10.3424
lowerback -7.11898 1.63512 -0.860162
upperback -4.84025 2.14806 0.61631
thorax -1.06053 1.07298 1.24504
lowerneck -1.86184 2.22133 0.7999
upperneck 29.0739 2.41461 -0.0383061
head 9.45195 0.959495 0.00940418
rclavicle -3.23025e-014 -1.43125e-014
rhumerus -22.9173 22.4583 -90.6718
rradius 53.727
rwrist -76.8354
rhand -20.5502 4.38746
rfingers 7.12502
rthumb 5.80863 -25.5129
lclavicle -3.23025e-014 -1.43125e-014
lhumerus -24.9497 -49.6353 98.9113
lradius 55.2234
lwrist 49.1883
lhand -4.9718 22.5613
lfingers 7.12502
lthumb 20.8205 51.4642
rfemur -64.3723 -43.46 28.1686
rtibia 109.074
rfoot 31.1362 -52.2537
rtoes 56.3879
lfemur -42.0585 -1.32571 -24.4766
ltibia 48.4161
lfoot -37.4587 20.8777
ltoes 23.7845
146
root 4.83338 16.4346 27.8096 26.3769 -54.4251 -10.8813
lowerback -7.20503 1.41359 -0.478706
upperback -4.70673 1.83291 0.697914
thorax -0.855915 0.906305 1.1013
lowerneck -1.89225 2.56646 0.637471
upperneck 28.7539 2.91652 -0.00460337
head 9.34083 1.18278 0.0902683
rclavicle -4.14963e-014 7.95139e-015
rhumerus -24.4939 26.0878 -91.0502
rradius 58.8742
rwrist -75.1526
rhand -16.356 5.54396
rfingers 7.12502
rthumb 9.85667 -24.2053
lclavicle -4.14963e-014 7.95139e-015
lhumerus -25.8221 -52.2804 98.7655
lradius 59.9257
lwrist 52.2715
lhand -0.952713 20.705
lfingers 7.12502
lthumb 24.6775 49.1338
rfemur -66.45 -42.6983 29.0745
rtibia 109.655
rfoot 31.3355 -52.3751
rtoes 56.075
lfemur -42.3437 -0.852962 -24.2596
ltibia 48.4645
lfoot -37.166 20.841
ltoes 22.9611
147
root 4.84561 16.4426 27.8052 26.727 -54.2968 -11.5027
lowerback -6.73973 1.15328 -0.0205686
upperback -4.65527 1.46439 0.890257
thorax -1.04444 0.715129 1.01002
lowerneck -1.85103 2.95047 0.407908
upperneck 28.6611 3.4904 -0.0495391
head 9.29837 1.42034 0.16041
rclavicle -5.95857e-014 -2.14687e-014
rhumerus -26.4332 28.8462 -91.227
rradius 64.1511
rwrist -73.3844
rhand -13.22 6.48599
rfingers 7.12502
rthumb 12.8811 -23.0965
lclavicle -5.95857e-014 -2.14687e-014
lhumerus -26.7756 -54.0651 98.652
lradius 64.6217
lwrist 55.9686
lhand 3.49514 19.9603
lfingers 7.12502
lthumb 28.9336 47.7355
rfemur -68.007 -42.0822 29.7976
rtibia 110.021
rfoot 31.5495 -52.5594
rtoes 52.9134
lfemur -42.284 -0.4584 -23.9321
ltibia 48.5217
lfoot -36.8007 20.7523
ltoes 22.5448
148
root 4.85824 16.4433 27.7991 26.7998 -54.2555 -11.743
lowerback -6.23821 0.953237 0.142854
upperback -4.63986 1.19548 1.04288
thorax -1.3012 0.57975 1.05145
lowerneck -1.95886 3.26872 0.14761
upperneck 28.7965 3.99359 -0.168626
head 9.36601 1.61076 0.208183
rclavicle -6.09772e-014 1.90833e-014
rhumerus -28.1652 30.6758 -91.0461
rradius 69.0139
rwrist -71.4654
rhand -9.90333 7.56428
rfingers 7.12502
rthumb 16.0767 -21.7888
lclavicle -6.09772e-014 1.90833e-014
lhumerus -27.8202 -55.7345 98.8175
lradius 69.1019
lwrist 59.0329
lhand 7.6178 19.5566
lfingers 7.12502
lthumb 32.8636 46.5855
rfemur -69.7392 -41.4024 30.4731
rtibia 110.298
rfoot 33.1994 -52.194
rtoes 50.208
lfemur -42.2657 -0.162241 -23.8702
ltibia 48.5906
lfoot -36.6183 20.6781
ltoes 22.5559
